<svg width="15" height="15" viewBox="0 0 15 15" fill="none" xmlns="http://www.w3.org/2000/svg">
<path d="M1.66667 15C1.20833 15 0.816111 14.8532 0.49 14.5597C0.163889 14.2662 0.000555556 13.913 0 13.5V3C0 2.5875 0.163333 2.2345 0.49 1.941C0.816667 1.6475 1.20889 1.5005 1.66667 1.5H5.16667C5.34722 1.05 5.64944 0.6875 6.07333 0.4125C6.49722 0.1375 6.97278 0 7.5 0C8.02722 0 8.50305 0.1375 8.9275 0.4125C9.35194 0.6875 9.65389 1.05 9.83333 1.5H13.3333C13.7917 1.5 14.1842 1.647 14.5108 1.941C14.8375 2.235 15.0006 2.588 15 3V13.5C15 13.9125 14.8369 14.2657 14.5108 14.5597C14.1847 14.8537 13.7922 15.0005 13.3333 15H1.66667ZM1.66667 13.5H13.3333V3H1.66667V13.5ZM3.33333 12H9.16667V10.5H3.33333V12ZM3.33333 9H11.6667V7.5H3.33333V9ZM3.33333 6H11.6667V4.5H3.33333V6ZM7.5 2.4375C7.68055 2.4375 7.83 2.38425 7.94833 2.27775C8.06667 2.17125 8.12556 2.037 8.125 1.875C8.12444 1.713 8.06528 1.57875 7.9475 1.47225C7.82972 1.36575 7.68055 1.3125 7.5 1.3125C7.31944 1.3125 7.17028 1.36575 7.0525 1.47225C6.93472 1.57875 6.87556 1.713 6.875 1.875C6.87444 2.037 6.93361 2.1715 7.0525 2.2785C7.17139 2.3855 7.32055 2.4385 7.5 2.4375Z" fill="white"/>
</svg>
