<svg width="15" height="16" viewBox="0 0 15 16" fill="none" xmlns="http://www.w3.org/2000/svg">
<path fill-rule="evenodd" clip-rule="evenodd" d="M0 0.5V12.1666H9.32784V11.3333H0.833326V1.33333H12.0832V2.21666H12.9166V0.5H0ZM12.9166 4.66666C12.9166 4.88767 12.8288 5.09963 12.6725 5.25591C12.5162 5.41219 12.3042 5.49999 12.0832 5.49999C11.8622 5.49999 11.6503 5.41219 11.494 5.25591C11.3377 5.09963 11.2499 4.88767 11.2499 4.66666C11.2499 4.44564 11.3377 4.23368 11.494 4.0774C11.6503 3.92112 11.8622 3.83332 12.0832 3.83332C12.3042 3.83332 12.5162 3.92112 12.6725 4.0774C12.8288 4.23368 12.9166 4.44564 12.9166 4.66666ZM13.7499 4.66666C13.7499 5.10868 13.5743 5.5326 13.2617 5.84516C12.9492 6.15772 12.5253 6.33332 12.0832 6.33332C11.6412 6.33332 11.2173 6.15772 10.9047 5.84516C10.5922 5.5326 10.4166 5.10868 10.4166 4.66666C10.4166 4.22463 10.5922 3.80071 10.9047 3.48815C11.2173 3.17559 11.6412 2.99999 12.0832 2.99999C12.5253 2.99999 12.9492 3.17559 13.2617 3.48815C13.5743 3.80071 13.7499 4.22463 13.7499 4.66666Z" fill="white"/>
<path fill-rule="evenodd" clip-rule="evenodd" d="M10.0387 7.09583C10.2711 6.874 10.5799 6.75016 10.9012 6.75H12.602C13.212 6.75 13.7799 6.9575 14.2174 7.37083C14.6382 7.76833 14.8574 8.27791 14.947 8.76083C15.0878 9.51999 14.942 10.3496 14.5832 11.085V14.4583C14.5833 14.7197 14.485 14.9716 14.3079 15.1639C14.1309 15.3562 13.888 15.4749 13.6275 15.4965C13.367 15.518 13.1079 15.4409 12.9016 15.2803C12.6954 15.1197 12.5571 14.8874 12.5141 14.6296L12.2916 13.2946L12.0691 14.6296C12.0261 14.8874 11.8878 15.1197 11.6815 15.2803C11.4753 15.4409 11.2162 15.518 10.9557 15.4965C10.6952 15.4749 10.4523 15.3562 10.2753 15.1639C10.0982 14.9716 9.99994 14.7197 9.99995 14.4583V10.5387C9.80993 10.6485 9.59437 10.7062 9.37495 10.7062H7.24914C6.91762 10.7062 6.59968 10.5745 6.36526 10.3401C6.13084 10.1057 5.99915 9.78776 5.99915 9.45624C5.99915 9.12472 6.13084 8.80678 6.36526 8.57236C6.59968 8.33794 6.91762 8.20625 7.24914 8.20625H8.87412L10.0387 7.09583ZM10.8333 11.9479V14.4583C10.8334 14.5105 10.8531 14.5607 10.8885 14.5991C10.9239 14.6374 10.9724 14.6611 11.0245 14.6654C11.0765 14.6697 11.1282 14.6543 11.1694 14.6223C11.2106 14.5903 11.2383 14.5439 11.247 14.4925L11.6816 11.8858C11.6978 11.7885 11.7479 11.7001 11.8232 11.6363C11.8984 11.5726 11.9938 11.5375 12.0924 11.5375H12.4908C12.5894 11.5375 12.6848 11.5726 12.76 11.6363C12.8353 11.7001 12.8854 11.7885 12.9016 11.8858L13.3362 14.4925C13.3449 14.5439 13.3726 14.5903 13.4138 14.6223C13.455 14.6543 13.5067 14.6697 13.5587 14.6654C13.6107 14.6611 13.6592 14.6374 13.6946 14.5991C13.73 14.5607 13.7498 14.5105 13.7499 14.4583V10.9862C13.7499 10.9195 13.7659 10.8538 13.7966 10.7946C14.1182 10.1733 14.2353 9.49291 14.1278 8.91291C14.0624 8.56041 13.9095 8.22625 13.6453 7.97666C13.3758 7.72208 13.0183 7.58333 12.602 7.58333H10.9016C10.7945 7.58333 10.6912 7.62458 10.6137 7.69833L9.3287 8.92416C9.25126 8.99815 9.14831 9.03949 9.0412 9.03958H7.24914C7.13863 9.03958 7.03265 9.08348 6.95451 9.16162C6.87637 9.23976 6.83247 9.34574 6.83247 9.45624C6.83247 9.56675 6.87637 9.67273 6.95451 9.75087C7.03265 9.82901 7.13863 9.87291 7.24914 9.87291H9.37495C9.48206 9.87282 9.58501 9.83149 9.66245 9.75749L10.1291 9.31249C10.1881 9.25621 10.2624 9.2185 10.3427 9.20402C10.423 9.18955 10.5057 9.19896 10.5807 9.23108C10.6557 9.2632 10.7196 9.31662 10.7645 9.38472C10.8094 9.45281 10.8333 9.53259 10.8333 9.61416V11.9479Z" fill="white"/>
</svg>
