<svg width="15" height="16" viewBox="0 0 15 16" fill="none" xmlns="http://www.w3.org/2000/svg">
<path d="M7.5 10.25C7.7125 10.25 7.89075 10.178 8.03475 10.034C8.17875 9.89 8.2505 9.712 8.25 9.5C8.2495 9.288 8.1775 9.11 8.034 8.966C7.8905 8.822 7.7125 8.75 7.5 8.75C7.2875 8.75 7.1095 8.822 6.966 8.966C6.8225 9.11 6.7505 9.288 6.75 9.5C6.7495 9.712 6.8215 9.89025 6.966 10.0347C7.1105 10.1792 7.2885 10.251 7.5 10.25ZM6.75 7.25H8.25V2.75H6.75V7.25ZM0 15.5V2C0 1.5875 0.147 1.2345 0.441 0.941C0.735 0.6475 1.088 0.5005 1.5 0.5H13.5C13.9125 0.5 14.2657 0.647 14.5597 0.941C14.8537 1.235 15.0005 1.588 15 2V11C15 11.4125 14.8532 11.7657 14.5597 12.0597C14.2662 12.3538 13.913 12.5005 13.5 12.5H3L0 15.5ZM2.3625 11H13.5V2H1.5V11.8438L2.3625 11Z" fill="white"/>
</svg>
