<svg width="24" height="26" viewBox="0 0 24 26" fill="none" xmlns="http://www.w3.org/2000/svg">
<path opacity="0.991" fill-rule="evenodd" clip-rule="evenodd" d="M3.18274 0.5C7.70749 0.5 12.2322 0.5 16.757 0.5C17.0608 0.583959 17.2642 0.779271 17.3673 1.08594C17.3917 1.60652 17.3999 2.12735 17.3917 2.64844C17.229 2.50195 17.0662 2.35547 16.9034 2.20898C13.2704 2.19287 9.64084 2.20915 6.01477 2.25781C5.55134 2.20127 5.07932 2.19313 4.59876 2.2334C4.26226 2.36147 4.04253 2.59748 3.93958 2.94141C3.91516 5.2851 3.90702 7.62886 3.91516 9.97265C3.50826 9.97265 3.10136 9.97265 2.69446 9.97265C2.68632 7.01035 2.69446 4.04813 2.71887 1.08594C2.77716 0.808569 2.93178 0.613256 3.18274 0.5Z" fill="#09BCFF"/>
<path opacity="0.989" fill-rule="evenodd" clip-rule="evenodd" d="M16.7617 0.5C17.3314 0.5 17.901 0.5 18.4707 0.5C18.6812 0.604819 18.8358 0.76758 18.9346 0.988281C18.959 2.06238 18.9671 3.1366 18.959 4.21094C18.4219 3.70638 17.901 3.18555 17.3965 2.64844C17.4046 2.12735 17.3965 1.60652 17.3721 1.08594C17.269 0.779271 17.0655 0.583959 16.7617 0.5Z" fill="#00AEEF"/>
<path fill-rule="evenodd" clip-rule="evenodd" d="M6.01672 2.25718C5.68748 2.39943 5.46775 2.64357 5.35754 2.9896C5.33313 5.31702 5.32498 7.64448 5.33313 9.97202C4.86111 9.97202 4.38912 9.97202 3.91711 9.97202C3.90898 7.62822 3.91711 5.28446 3.94153 2.94077C4.04448 2.59684 4.26421 2.36083 4.60071 2.23276C5.08127 2.1925 5.5533 2.20063 6.01672 2.25718Z" fill="#00AEEF"/>
<path fill-rule="evenodd" clip-rule="evenodd" d="M16.9082 2.20883C16.9 3.38082 16.9082 4.55269 16.9326 5.72446C17.0489 6.085 17.2849 6.3373 17.6406 6.48129C18.3078 6.50571 18.975 6.51386 19.6426 6.50571C19.6426 8.4914 19.6426 10.477 19.6426 12.4627C20.1634 12.4627 20.6842 12.4627 21.2051 12.4627C19.1869 12.4953 17.1605 12.5116 15.126 12.5116C13.073 12.5113 11.0304 12.4788 8.99804 12.4139C8.82207 12.0783 8.65932 11.7365 8.50976 11.3885C11.944 11.3967 15.3783 11.3885 18.8125 11.3641C19.0432 11.2452 19.1164 11.058 19.0322 10.8026C18.9729 10.7269 18.8997 10.67 18.8125 10.6317C15.2318 10.6073 11.6511 10.5991 8.07031 10.6073C7.96709 10.3494 7.78804 10.1622 7.5332 10.0457C7.0289 10.0213 6.52436 10.0132 6.01953 10.0213C4.90435 10.0375 3.79755 10.0212 2.69922 9.9725C3.10612 9.9725 3.51302 9.9725 3.91992 9.9725C4.39193 9.9725 4.86392 9.9725 5.33594 9.9725C5.32778 7.64496 5.33594 5.3175 5.36035 2.99008C5.47056 2.64406 5.69028 2.39992 6.01953 2.25766C9.6456 2.20899 13.2752 2.19272 16.9082 2.20883Z" fill="#E9F5FE"/>
<path opacity="0.996" fill-rule="evenodd" clip-rule="evenodd" d="M16.9054 2.20898C17.0681 2.35547 17.2309 2.50195 17.3937 2.64844C17.8982 3.18555 18.4191 3.70638 18.9562 4.21094C19.7049 4.97591 20.4536 5.74087 21.2023 6.50586C20.6814 6.50586 20.1606 6.50586 19.6398 6.50586C18.9722 6.51401 18.305 6.50586 17.6378 6.48144C17.2821 6.33745 17.0461 6.08516 16.9298 5.72461C16.9054 4.55285 16.8972 3.38097 16.9054 2.20898Z" fill="#B2D9FD"/>
<path fill-rule="evenodd" clip-rule="evenodd" d="M19.6406 6.50586C20.1615 6.50586 20.6823 6.50586 21.2031 6.50586C21.2519 8.48325 21.2682 10.4689 21.252 12.4629C21.2357 12.4629 21.2194 12.4629 21.2031 12.4629C20.6823 12.4629 20.1615 12.4629 19.6406 12.4629C19.6406 10.4772 19.6406 8.49155 19.6406 6.50586Z" fill="#D8ECFE"/>
<path fill-rule="evenodd" clip-rule="evenodd" d="M7.6787 8.11805C11.3897 8.10989 15.1006 8.11805 18.8115 8.14246C19.0649 8.2847 19.1219 8.48817 18.9824 8.75281C18.9458 8.78338 18.9051 8.80779 18.8603 8.82606C15.1331 8.85862 11.4059 8.85862 7.6787 8.82606C7.49745 8.70335 7.44052 8.53245 7.5078 8.31336C7.57499 8.25452 7.63192 8.18944 7.6787 8.11805Z" fill="#82AEE3"/>
<path opacity="0.998" fill-rule="evenodd" clip-rule="evenodd" d="M2.69727 9.97352C3.7956 10.0222 4.90239 10.0385 6.01758 10.0223C6.10815 10.0805 6.19766 10.1455 6.28613 10.2177C6.67793 10.9768 7.07671 11.7337 7.48242 12.4882C7.99702 12.524 8.50156 12.4996 8.99609 12.4149C11.0284 12.4798 13.071 12.5123 15.124 12.5126C17.1586 12.5126 19.185 12.4963 21.2031 12.4638C21.2194 12.4638 21.2357 12.4638 21.2519 12.4638C21.6625 12.5841 21.9473 12.8445 22.1064 13.245C22.139 17.0862 22.139 20.9273 22.1064 24.7684C21.9499 25.1451 21.6813 25.3892 21.3008 25.5009C14.6113 25.5009 7.92187 25.5009 1.23242 25.5009C0.846832 25.3344 0.610831 25.0414 0.524415 24.622C0.491862 19.9507 0.491862 15.2795 0.524415 10.6083C0.594088 10.2946 0.781261 10.0911 1.08594 9.99793C1.6228 9.97352 2.15991 9.96536 2.69727 9.97352Z" fill="#0162E8"/>
<path fill-rule="evenodd" clip-rule="evenodd" d="M6.01953 10.0223C6.52437 10.0142 7.02891 10.0223 7.5332 10.0467C7.78804 10.1632 7.96709 10.3504 8.07031 10.6083C8.19282 10.8862 8.33931 11.1466 8.50977 11.3895C8.65933 11.7375 8.82207 12.0793 8.99805 12.4149C8.50352 12.4996 7.99897 12.524 7.48437 12.4881C7.07866 11.7337 6.67988 10.9768 6.28809 10.2176C6.19961 10.1455 6.11011 10.0804 6.01953 10.0223Z" fill="#014DBC"/>
<path fill-rule="evenodd" clip-rule="evenodd" d="M8.07031 10.6083C11.6511 10.6001 15.2318 10.6083 18.8125 10.6327C18.8997 10.671 18.9729 10.728 19.0322 10.8036C19.1164 11.059 19.0432 11.2462 18.8125 11.3651C15.3783 11.3895 11.944 11.3977 8.50977 11.3895C8.33931 11.1467 8.19282 10.8862 8.07031 10.6083Z" fill="#85B0E3"/>
<path opacity="0.996" fill-rule="evenodd" clip-rule="evenodd" d="M21.2539 12.4638C21.8075 12.4556 22.3609 12.4638 22.9141 12.4882C23.3659 12.5982 23.6345 12.8831 23.7197 13.3427C23.7523 17.1024 23.7523 20.8622 23.7197 24.622C23.6333 25.0414 23.3973 25.3344 23.0117 25.5009C22.442 25.5009 21.8724 25.5009 21.3027 25.5009C21.6833 25.3892 21.9519 25.1451 22.1084 24.7684C22.141 20.9273 22.141 17.0862 22.1084 13.245C21.9493 12.8445 21.6645 12.5841 21.2539 12.4638Z" fill="#014DBC"/>
</svg>
