<svg width="23" height="19" viewBox="0 0 23 19" fill="none" xmlns="http://www.w3.org/2000/svg">
<path d="M11.0766 13.0062C8.94384 13.0062 7.21289 11.5278 7.21289 9.70624C7.21289 7.88465 8.94384 6.40625 11.0766 6.40625C13.2094 6.40625 14.9403 7.88465 14.9403 9.70624C14.9403 11.5278 13.2094 13.0062 11.0766 13.0062ZM11.0766 7.72625C9.79901 7.72625 8.75838 8.61505 8.75838 9.70624C8.75838 10.7974 9.79901 11.6862 11.0766 11.6862C12.3542 11.6862 13.3949 10.7974 13.3949 9.70624C13.3949 8.61505 12.3542 7.72625 11.0766 7.72625Z" fill="#242F48"/>
<path d="M14.3834 18.6736C14.167 18.6736 13.9506 18.6472 13.7343 18.6032C13.0955 18.4536 12.5597 18.1104 12.2197 17.6264L12.096 17.4504C11.4882 16.5528 10.6536 16.5528 10.0457 17.4504L9.93236 17.6176C9.59235 18.1104 9.05658 18.4624 8.41778 18.6032C7.76867 18.7528 7.09896 18.6736 6.53228 18.3832L4.76011 17.512C4.13161 17.204 3.67827 16.7024 3.48251 16.0952C3.29705 15.488 3.38978 14.8632 3.75039 14.3264C4.04919 13.8776 4.13161 13.4728 3.95646 13.2176C3.7813 12.9624 3.33826 12.8128 2.73037 12.8128C1.22609 12.8128 0 11.7656 0 10.4808V8.93205C0 7.64725 1.22609 6.60005 2.73037 6.60005C3.33826 6.60005 3.7813 6.45045 3.95646 6.19525C4.13161 5.94005 4.05949 5.53525 3.75039 5.08645C3.38978 4.54966 3.29705 3.91606 3.48251 3.31766C3.66797 2.71046 4.12131 2.20886 4.76011 1.90086L6.54258 1.02966C7.70685 0.440064 9.24204 0.783263 9.94266 1.79526L10.0663 1.97126C10.6742 2.86886 11.5088 2.86886 12.1167 1.97126L12.23 1.80406C12.9306 0.783263 14.4658 0.440064 15.6404 1.03846L17.4125 1.90966C18.041 2.21766 18.4944 2.71926 18.6901 3.32646C18.8756 3.93366 18.7829 4.55846 18.4223 5.09525C18.1235 5.54405 18.041 5.94885 18.2162 6.20405C18.3913 6.45925 18.8344 6.60885 19.4423 6.60885C20.9466 6.60885 22.1727 7.65605 22.1727 8.94085V10.4896C22.1727 11.7744 20.9466 12.8216 19.4423 12.8216C18.8344 12.8216 18.3913 12.9712 18.2162 13.2264C18.041 13.4816 18.1132 13.8864 18.4223 14.3352C18.7829 14.872 18.8859 15.5056 18.6901 16.104C18.5047 16.7112 18.0513 17.2128 17.4125 17.5208L15.6301 18.392C15.2385 18.5768 14.8161 18.6736 14.3834 18.6736ZM11.076 15.4176C11.993 15.4176 12.8482 15.9104 13.4355 16.7816L13.5488 16.9488C13.6724 17.1336 13.8785 17.2656 14.1258 17.3184C14.3731 17.3712 14.6203 17.3448 14.8264 17.2392L16.6089 16.3592C16.8768 16.2272 17.0828 16.0072 17.1653 15.7432C17.2477 15.4792 17.2065 15.2064 17.0519 14.9776C16.4646 14.1152 16.3925 13.2264 16.8459 12.5488C17.2992 11.8712 18.2368 11.484 19.4114 11.484C20.0708 11.484 20.5963 11.0352 20.5963 10.472V8.92325C20.5963 8.36885 20.0708 7.91125 19.4114 7.91125C18.2368 7.91125 17.2992 7.52405 16.8459 6.84645C16.3925 6.16885 16.4646 5.28005 17.0519 4.41766C17.2065 4.18886 17.2477 3.91606 17.1653 3.65206C17.0828 3.38806 16.8871 3.17686 16.6192 3.03606L14.8367 2.16486C14.3937 1.93606 13.8064 2.06806 13.5385 2.45526L13.4252 2.62246C12.8379 3.49366 11.9827 3.98646 11.0657 3.98646C10.1487 3.98646 9.29356 3.49366 8.70627 2.62246L8.59293 2.44646C8.33535 2.07686 7.75837 1.94486 7.31533 2.16486L5.53286 3.04486C5.26497 3.17686 5.05891 3.39686 4.97648 3.66086C4.89406 3.92486 4.93527 4.19766 5.08982 4.42646C5.67711 5.28885 5.74923 6.17765 5.29588 6.85525C4.84254 7.53285 3.90494 7.92005 2.73037 7.92005C2.07096 7.92005 1.54549 8.36885 1.54549 8.93205V10.4808C1.54549 11.0352 2.07096 11.4928 2.73037 11.4928C3.90494 11.4928 4.84254 11.88 5.29588 12.5576C5.74923 13.2352 5.67711 14.124 5.08982 14.9864C4.93527 15.2152 4.89406 15.488 4.97648 15.752C5.05891 16.016 5.25467 16.2272 5.52256 16.368L7.30502 17.2392C7.52139 17.3536 7.77897 17.38 8.01595 17.3272C8.26323 17.2744 8.46929 17.1336 8.60324 16.9488L8.71657 16.7816C9.30386 15.9192 10.159 15.4176 11.076 15.4176Z" fill="#242F48"/>
</svg>
