<svg width="33" height="16" viewBox="0 0 33 16" fill="none" xmlns="http://www.w3.org/2000/svg">
<path d="M1.83538 0.719208C0.962117 0.872192 0.220855 1.53813 0.0533099 2.33005C-0.01777 2.66302 -0.01777 13.525 0.0533099 13.8579C0.225932 14.6678 0.962117 15.3203 1.876 15.4733C2.25171 15.5363 23.7483 15.5363 24.124 15.4733C25.0379 15.3203 25.7741 14.6678 25.9467 13.8579C26.0178 13.525 26.0178 2.66302 25.9467 2.33005C25.7741 1.52013 25.0379 0.867693 24.124 0.714708C23.7838 0.660713 2.1654 0.660713 1.83538 0.719208ZM22.875 2.06008C22.7836 2.13657 13.0254 8.58894 13 8.58894C12.9746 8.58894 3.21636 2.13657 3.13005 2.06008C3.09959 2.03758 7.02421 2.01958 13 2.01958C18.9758 2.01958 22.9004 2.03758 22.875 2.06008ZM8.63367 7.39655C10.8625 8.87241 12.6598 10.0288 12.7766 10.0693C12.9492 10.1233 13.0254 10.1278 13.1879 10.0828C13.3148 10.0513 15.3253 8.74642 18.9149 6.37065L24.4489 2.71251L24.4642 8.17048C24.4743 13.5699 24.4743 13.6329 24.3728 13.8084C24.3068 13.9254 24.2002 14.0199 24.0682 14.0784C23.8701 14.1684 23.794 14.1684 13 14.1684C2.20601 14.1684 2.12986 14.1684 1.93185 14.0784C1.79984 14.0199 1.69322 13.9254 1.62722 13.8084C1.52568 13.6329 1.52568 13.5565 1.52568 8.16598V2.69451L3.11482 3.74291C3.98301 4.31886 6.47081 5.96569 8.63367 7.39655Z" fill="#242F48"/>
<path d="M32 5.24048C32 7.1999 30.2757 8.90479 28 8.90479C25.7243 8.90479 24 7.1999 24 5.24048C24 3.28106 25.7243 1.57617 28 1.57617C30.2757 1.57617 32 3.28106 32 5.24048Z" fill="#EF0000" stroke="#FFB8B8" stroke-width="2"/>
</svg>
