<svg width="27" height="23" viewBox="0 0 27 23" fill="none" xmlns="http://www.w3.org/2000/svg">
<path fill-rule="evenodd" clip-rule="evenodd" d="M7.54848 5.19282C8.07493 4.88309 8.69387 4.71777 9.32702 4.71777C9.73352 4.71777 10.0631 5.00793 10.0631 5.36586C10.0631 5.72379 9.73352 6.01395 9.32702 6.01395C8.98502 6.01395 8.65069 6.10325 8.36632 6.27055C8.08196 6.43785 7.86032 6.67565 7.72944 6.95386C7.59856 7.23207 7.56432 7.53821 7.63104 7.83356C7.69776 8.12891 7.86245 8.40021 8.10429 8.61315C8.34612 8.82608 8.65424 8.97109 8.98967 9.02984C9.3251 9.08859 9.67279 9.05844 9.98876 8.9432C10.3047 8.82796 10.5748 8.63281 10.7648 8.38242C10.9548 8.13203 11.0562 7.83766 11.0562 7.53652C11.0562 7.17859 11.3858 6.88844 11.7923 6.88844C12.1988 6.88844 12.5283 7.17859 12.5283 7.53652C12.5283 8.09402 12.3406 8.639 11.9888 9.10254C11.637 9.56608 11.1371 9.92736 10.5521 10.1407C9.96714 10.3541 9.32347 10.4099 8.70248 10.3011C8.08149 10.1924 7.51108 9.92389 7.06337 9.52968C6.61566 9.13547 6.31077 8.63322 6.18725 8.08643C6.06372 7.53965 6.12712 6.97289 6.36942 6.45783C6.61171 5.94278 7.02203 5.50255 7.54848 5.19282Z" fill="#8D98AA"/>
<path fill-rule="evenodd" clip-rule="evenodd" d="M25.3203 8.47559C25.7209 8.47559 26.0457 8.76752 26.0457 9.12764V14.5875C26.0457 17.3806 25.4321 19.5054 23.8716 20.9159C22.3101 22.3273 19.9567 22.8825 16.8644 22.8825H9.61671C6.52543 22.8825 4.1721 22.3276 2.61033 20.9163C1.04952 19.5059 0.435425 17.3811 0.435425 14.5875V12.3923C0.435425 12.0321 0.760219 11.7402 1.16087 11.7402C1.56153 11.7402 1.88632 12.0321 1.88632 12.3923V14.5875C1.88632 17.2538 2.48131 18.9505 3.639 19.9966C4.79573 21.0419 6.67032 21.5784 9.61671 21.5784H16.8644C19.8118 21.5784 21.6863 21.0417 22.8428 19.9963C24.0003 18.9501 24.5948 17.2535 24.5948 14.5875V9.12764C24.5948 8.76752 24.9196 8.47559 25.3203 8.47559Z" fill="#8D98AA"/>
<path fill-rule="evenodd" clip-rule="evenodd" d="M2.64052 2.25933C4.22306 0.87686 6.60772 0.333008 9.74239 0.333008H14.6432C15.0472 0.333008 15.3748 0.619147 15.3748 0.972118C15.3748 1.32509 15.0472 1.61123 14.6432 1.61123H9.74239C6.75209 1.61123 4.84906 2.13767 3.67516 3.16316C2.50126 4.18865 1.89863 5.85109 1.89863 8.46335C1.89863 8.81632 1.57108 9.10246 1.16703 9.10246C0.762975 9.10246 0.435425 8.81632 0.435425 8.46335C0.435425 5.72497 1.05798 3.64179 2.64052 2.25933Z" fill="#8D98AA"/>
<path fill-rule="evenodd" clip-rule="evenodd" d="M16.7982 4.09319C16.7982 3.74724 17.1391 3.4668 17.5597 3.4668H24.5735C24.9941 3.4668 25.335 3.74724 25.335 4.09319C25.335 4.43913 24.9941 4.71958 24.5735 4.71958H17.5597C17.1391 4.71958 16.7982 4.43913 16.7982 4.09319Z" fill="#8D98AA"/>
<path fill-rule="evenodd" clip-rule="evenodd" d="M21.0664 0.333008C21.4593 0.333008 21.7778 0.633198 21.7778 1.0035V7.17918C21.7778 7.54949 21.4593 7.84968 21.0664 7.84968C20.6735 7.84968 20.355 7.54949 20.355 7.17918V1.0035C20.355 0.633198 20.6735 0.333008 21.0664 0.333008Z" fill="#8D98AA"/>
<path fill-rule="evenodd" clip-rule="evenodd" d="M20.3889 12.657L15.3541 16.4945L15.3407 16.5045C14.7286 16.9489 13.9606 17.1918 13.168 17.1918C12.3754 17.1918 11.6073 16.9489 10.9952 16.5045C10.9886 16.4997 10.9821 16.4948 10.9757 16.4898L10.5871 16.1868C10.2616 15.9556 9.86185 15.8205 9.44438 15.8009C9.02432 15.7811 8.608 15.8792 8.25512 16.0811L2.28212 19.6407C1.94872 19.8394 1.49591 19.762 1.27073 19.4678C1.04556 19.1736 1.13329 18.7741 1.46669 18.5754L7.45465 15.0068C8.0674 14.6542 8.79144 14.4827 9.52197 14.5171C10.2525 14.5515 10.9517 14.79 11.5185 15.1982C11.5258 15.2035 11.5331 15.2089 11.5402 15.2144L11.93 15.5183C12.2798 15.7692 12.717 15.9062 13.168 15.9062C13.6203 15.9062 14.0586 15.7684 14.4089 15.5162L19.4437 11.6787L19.457 11.6687C20.0691 11.2244 20.8372 10.9814 21.6298 10.9814C22.4224 10.9814 23.1904 11.2244 23.8025 11.6687L23.816 11.6787L25.7925 13.1854C26.097 13.4175 26.1305 13.8234 25.8675 14.092C25.6045 14.3607 25.1445 14.3903 24.8401 14.1582L22.8707 12.657C22.5204 12.4048 22.0821 12.267 21.6298 12.267C21.1775 12.267 20.7392 12.4048 20.3889 12.657Z" fill="#8D98AA"/>
</svg>
