<svg width="15" height="15" viewBox="0 0 15 15" fill="none" xmlns="http://www.w3.org/2000/svg">
<path d="M0 7.5C0 11.6423 3.35775 15 7.5 15C11.6423 15 15 11.6423 15 7.5C15 3.35775 11.6423 0 7.5 0C3.35775 0 0 3.35775 0 7.5ZM13.5 7.5C13.5 9.0913 12.8679 10.6174 11.7426 11.7426C10.6174 12.8679 9.0913 13.5 7.5 13.5C5.9087 13.5 4.38258 12.8679 3.25736 11.7426C2.13214 10.6174 1.5 9.0913 1.5 7.5C1.5 5.9087 2.13214 4.38258 3.25736 3.25736C4.38258 2.13214 5.9087 1.5 7.5 1.5C9.0913 1.5 10.6174 2.13214 11.7426 3.25736C12.8679 4.38258 13.5 5.9087 13.5 7.5ZM12 7.5C12.0001 8.39009 11.7362 9.26023 11.2418 10.0003C10.7473 10.7405 10.0445 11.3173 9.22215 11.658C8.39981 11.9986 7.49493 12.0877 6.62195 11.914C5.74896 11.7404 4.94709 11.3117 4.31775 10.6823L7.5 7.5V3C8.69347 3 9.83807 3.47411 10.682 4.31802C11.5259 5.16193 12 6.30653 12 7.5Z" fill="#F2F1F1"/>
</svg>
