<svg width="21" height="18" viewBox="0 0 21 18" fill="none" xmlns="http://www.w3.org/2000/svg">
<path d="M6.54388 17.8231C6.27243 17.8231 5.99127 17.7652 5.73921 17.6492C5.18661 17.4008 4.84732 16.904 4.84732 16.3741V15.1984C1.91954 14.9417 0 13.1034 0 10.4704V5.5023C0 2.65393 2.23946 0.741211 5.57442 0.741211H15.2691C18.604 0.741211 20.8435 2.65393 20.8435 5.5023V10.4704C20.8435 13.3187 18.604 15.2314 15.2691 15.2314H11.6142L7.48423 17.5831C7.20309 17.7404 6.8735 17.8231 6.54388 17.8231ZM5.57442 1.97494C3.0732 1.97494 1.4542 3.35773 1.4542 5.49401V10.4622C1.4542 12.5984 3.0732 13.9812 5.57442 13.9812C5.9719 13.9812 6.30152 14.2627 6.30152 14.6022V16.3659C6.30152 16.4735 6.37907 16.5232 6.42755 16.5481C6.47603 16.5729 6.57297 16.5977 6.67962 16.5398L10.9937 14.0889C11.1101 14.0226 11.2555 13.9812 11.4009 13.9812H15.2788C17.78 13.9812 19.399 12.5984 19.399 10.4622V5.49401C19.399 3.35773 17.78 1.97494 15.2788 1.97494H5.57442Z" fill="#242F48"/>
<path d="M10.4223 9.36754C10.0248 9.36754 9.69521 9.08601 9.69521 8.74652V8.57264C9.69521 7.61214 10.5193 7.14017 10.8295 6.958C11.1882 6.751 11.3045 6.61025 11.3045 6.39496C11.3045 5.98096 10.907 5.64144 10.4223 5.64144C9.93757 5.64144 9.54009 5.98096 9.54009 6.39496C9.54009 6.73445 9.21048 7.01597 8.813 7.01597C8.41556 7.01597 8.08594 6.73445 8.08594 6.39496C8.08594 5.2937 9.13292 4.39941 10.4223 4.39941C11.7117 4.39941 12.7587 5.2937 12.7587 6.39496C12.7587 7.3389 11.9444 7.81087 11.6438 7.98475C11.2657 8.20003 11.1494 8.3408 11.1494 8.57264V8.74652C11.1494 9.09429 10.8198 9.36754 10.4223 9.36754Z" fill="#242F48"/>
<path d="M10.4224 11.4325C10.0152 11.4325 9.69531 11.1509 9.69531 10.8114C9.69531 10.472 10.0249 10.1904 10.4224 10.1904C10.8199 10.1904 11.1495 10.472 11.1495 10.8114C11.1495 11.1509 10.8296 11.4325 10.4224 11.4325Z" fill="#242F48"/>
</svg>
