<svg width="17" height="17" viewBox="0 0 17 17" fill="none" xmlns="http://www.w3.org/2000/svg">
<path d="M5.16667 5.41176H11.8333M5.16667 8.94118H10.1667M13.5 1C14.163 1 14.7989 1.27889 15.2678 1.77531C15.7366 2.27173 16 2.94502 16 3.64706V10.7059C16 11.4079 15.7366 12.0812 15.2678 12.5776C14.7989 13.0741 14.163 13.3529 13.5 13.3529H9.33333L5.16667 16V13.3529H3.5C2.83696 13.3529 2.20107 13.0741 1.73223 12.5776C1.26339 12.0812 1 11.4079 1 10.7059V3.64706C1 2.94502 1.26339 2.27173 1.73223 1.77531C2.20107 1.27889 2.83696 1 3.5 1H13.5Z" stroke="white" stroke-linecap="round" stroke-linejoin="round"/>
</svg>
