<svg width="15" height="15" viewBox="0 0 15 15" fill="none" xmlns="http://www.w3.org/2000/svg">
<path d="M14.6054 2.42962L7.68239 0.0307796C7.56396 -0.0102599 7.43592 -0.0102599 7.31749 0.0307796L0.394468 2.42962C0.279593 2.46943 0.179679 2.5458 0.108881 2.64792C0.0380836 2.75004 -8.97272e-06 2.87272 1.58534e-09 2.9986V8.99571C1.58534e-09 9.15476 0.0607822 9.3073 0.168975 9.41977C0.277169 9.53223 0.42391 9.59542 0.576918 9.59542C0.729926 9.59542 0.876668 9.53223 0.984861 9.41977C1.09305 9.3073 1.15384 9.15476 1.15384 8.99571V3.8307L3.57617 4.66954C2.93259 5.75037 2.72793 7.05252 3.00714 8.29007C3.28635 9.52763 4.02659 10.5994 5.06534 11.2701C3.76728 11.7994 2.64517 12.7566 1.8245 14.0655C1.78182 14.1315 1.75218 14.2056 1.73729 14.2835C1.7224 14.3615 1.72257 14.4417 1.73778 14.5196C1.75299 14.5975 1.78294 14.6715 1.8259 14.7372C1.86885 14.803 1.92395 14.8592 1.98799 14.9026C2.05203 14.946 2.12373 14.9758 2.19893 14.9901C2.27413 15.0045 2.35132 15.0032 2.42602 14.9862C2.50073 14.9693 2.57145 14.9371 2.63408 14.8915C2.69671 14.846 2.74999 14.7879 2.79084 14.7207C3.87761 12.9875 5.59394 11.9943 7.49994 11.9943C9.40593 11.9943 11.1223 12.9875 12.209 14.7207C12.2936 14.8514 12.4244 14.9423 12.5729 14.9736C12.7215 15.005 12.8759 14.9743 13.0029 14.8882C13.1298 14.8021 13.2191 14.6676 13.2514 14.5136C13.2837 14.3597 13.2564 14.1987 13.1754 14.0655C12.3547 12.7566 11.2283 11.7994 9.93453 11.2701C10.9723 10.5994 11.7118 9.52835 11.991 8.29171C12.2701 7.05506 12.0661 5.75381 11.4237 4.67329L14.6054 3.57132C14.7203 3.53154 14.8202 3.45517 14.8911 3.35306C14.9619 3.25094 15 3.12824 15 3.00235C15 2.87646 14.9619 2.75376 14.8911 2.65164C14.8202 2.54952 14.7203 2.47316 14.6054 2.43337V2.42962ZM10.9614 7.19657C10.9616 7.76544 10.832 8.32624 10.5833 8.83296C10.3346 9.33968 9.97382 9.77788 9.53064 10.1116C9.08745 10.4453 8.57447 10.6651 8.03377 10.7528C7.49307 10.8405 6.94006 10.7938 6.42012 10.6163C5.90019 10.4388 5.42813 10.1358 5.04269 9.73194C4.65725 9.32812 4.36941 8.83505 4.20278 8.29319C4.03616 7.75134 3.9955 7.17613 4.08414 6.61478C4.17277 6.05342 4.38819 5.52191 4.7127 5.06385L7.31749 5.96342C7.43592 6.00446 7.56396 6.00446 7.68239 5.96342L10.2872 5.06385C10.7255 5.68155 10.9618 6.42902 10.9614 7.19657ZM7.49994 4.7655L2.40142 2.9986L7.49994 1.2317L12.5984 2.9986L7.49994 4.7655Z" fill="white"/>
</svg>
