<svg width="15" height="15" viewBox="0 0 15 15" fill="none" xmlns="http://www.w3.org/2000/svg">
<path d="M13.5366 11.25C13.9247 11.25 14.2969 11.092 14.5714 10.8107C14.8458 10.5294 15 10.1478 15 9.75V1.5C15 1.10218 14.8458 0.720644 14.5714 0.43934C14.2969 0.158035 13.9247 0 13.5366 0H5.82439C6.08049 0.4575 6.21951 0.975 6.21951 1.5H13.5366V9.75H6.95122V11.25M9.87805 3.75V5.25H5.4878V15H4.02439V10.5H2.56098V15H1.09756V9H0V5.25C0 4.85218 0.154181 4.47064 0.428624 4.18934C0.703068 3.90804 1.07529 3.75 1.46341 3.75H9.87805ZM4.7561 1.5C4.7561 1.89782 4.60192 2.27936 4.32747 2.56066C4.05303 2.84196 3.6808 3 3.29268 3C2.90456 3 2.53234 2.84196 2.25789 2.56066C1.98345 2.27936 1.82927 1.89782 1.82927 1.5C1.82927 1.10218 1.98345 0.720644 2.25789 0.43934C2.53234 0.158035 2.90456 0 3.29268 0C3.6808 0 4.05303 0.158035 4.32747 0.43934C4.60192 0.720644 4.7561 1.10218 4.7561 1.5Z" fill="white"/>
</svg>
