<svg width="20" height="20" viewBox="0 0 20 20" fill="none" xmlns="http://www.w3.org/2000/svg">
<path d="M18.3383 7.3172L4.33829 0.317199C3.78579 0.0422077 3.16191 -0.0556909 2.55173 0.0368503C1.94155 0.129391 1.37475 0.407869 0.928626 0.834314C0.482498 1.26076 0.178747 1.81442 0.058787 2.41981C-0.061173 3.0252 0.00849563 3.65285 0.258294 4.2172L2.65829 9.5872C2.71275 9.71703 2.7408 9.85641 2.7408 9.9972C2.7408 10.138 2.71275 10.2774 2.65829 10.4072L0.258294 15.7772C0.0549944 16.2339 -0.03095 16.7342 0.00827138 17.2326C0.0474928 17.7309 0.210636 18.2116 0.482876 18.6309C0.755116 19.0502 1.12782 19.3948 1.56712 19.6334C2.00641 19.872 2.49838 19.9971 2.99829 19.9972C3.46653 19.9925 3.92778 19.8832 4.34829 19.6772L18.3483 12.6772C18.8449 12.4274 19.2623 12.0445 19.554 11.5713C19.8457 11.0981 20.0001 10.5531 20.0001 9.9972C20.0001 9.44131 19.8457 8.89635 19.554 8.42312C19.2623 7.94989 18.8449 7.56701 18.3483 7.3172H18.3383ZM17.4483 10.8872L3.44829 17.8872C3.26446 17.9755 3.05803 18.0054 2.85668 17.973C2.65534 17.9407 2.4687 17.8475 2.32181 17.7061C2.17491 17.5646 2.07477 17.3816 2.03482 17.1816C1.99487 16.9816 2.01702 16.7742 2.09829 16.5872L4.48829 11.2172C4.51923 11.1455 4.54595 11.072 4.56829 10.9972H11.4583C11.7235 10.9972 11.9779 10.8918 12.1654 10.7043C12.3529 10.5168 12.4583 10.2624 12.4583 9.9972C12.4583 9.73198 12.3529 9.47763 12.1654 9.29009C11.9779 9.10256 11.7235 8.9972 11.4583 8.9972H4.56829C4.54595 8.92237 4.51923 8.84891 4.48829 8.7772L2.09829 3.4072C2.01702 3.22016 1.99487 3.01275 2.03482 2.81277C2.07477 2.61279 2.17491 2.4298 2.32181 2.28835C2.4687 2.14689 2.65534 2.05373 2.85668 2.02135C3.05803 1.98897 3.26446 2.01893 3.44829 2.1072L17.4483 9.1072C17.6121 9.19112 17.7496 9.31861 17.8456 9.47564C17.9415 9.63268 17.9923 9.81315 17.9923 9.9972C17.9923 10.1812 17.9415 10.3617 17.8456 10.5188C17.7496 10.6758 17.6121 10.8033 17.4483 10.8872Z" fill="#DE4B18"/>
</svg>
